<?xml version="1.0" encoding="UTF-8" standalone="no"?>
<!-- Created with Inkscape (http://www.inkscape.org/) -->

<svg
   xmlns:dc="http://purl.org/dc/elements/1.1/"
   xmlns:cc="http://creativecommons.org/ns#"
   xmlns:rdf="http://www.w3.org/1999/02/22-rdf-syntax-ns#"
   xmlns:svg="http://www.w3.org/2000/svg"
   xmlns="http://www.w3.org/2000/svg"
   xmlns:sodipodi="http://sodipodi.sourceforge.net/DTD/sodipodi-0.dtd"
   xmlns:inkscape="http://www.inkscape.org/namespaces/inkscape"
   version="1.1"
   id="svg2"
   xml:space="preserve"
   width="604.724"
   height="340.15732"
   viewBox="0 0 604.724 340.15732"
   sodipodi:docname="frontpage.svg"
   inkscape:version="0.92.5 (2060ec1f9f, 2020-04-08)"><metadata
     id="metadata8"><rdf:RDF><cc:Work
         rdf:about=""><dc:format>image/svg+xml</dc:format><dc:type
           rdf:resource="http://purl.org/dc/dcmitype/StillImage" /><dc:title /></cc:Work></rdf:RDF></metadata><defs
     id="defs6"><clipPath
       clipPathUnits="userSpaceOnUse"
       id="clipPath22"><path
         d="M 0,0 H 841.89001 V 595.28003 H 0 Z"
         id="path20"
         inkscape:connector-curvature="0" /></clipPath><clipPath
       clipPathUnits="userSpaceOnUse"
       id="clipPath154"><path
         d="M 0,0 H 141.73228 V 70.865089 H 0 Z"
         id="path152"
         inkscape:connector-curvature="0" /></clipPath></defs><sodipodi:namedview
     pagecolor="#ffffff"
     bordercolor="#666666"
     borderopacity="1"
     objecttolerance="10"
     gridtolerance="10"
     guidetolerance="10"
     inkscape:pageopacity="0"
     inkscape:pageshadow="2"
     inkscape:window-width="2560"
     inkscape:window-height="1411"
     id="namedview4"
     showgrid="false"
     inkscape:zoom="2.4606267"
     inkscape:cx="231.83989"
     inkscape:cy="172.36975"
     inkscape:window-x="0"
     inkscape:window-y="0"
     inkscape:window-maximized="1"
     inkscape:current-layer="g10" /><g
     id="g10"
     inkscape:groupmode="layer"
     inkscape:label="presentation"
     transform="matrix(1.3333333,0,0,-1.3333333,0,340.15733)"><rect
       style="opacity:1;vector-effect:none;fill:#ffffff;fill-opacity:1;fill-rule:nonzero;stroke:none;stroke-width:1.41732287;stroke-linecap:round;stroke-linejoin:round;stroke-miterlimit:4;stroke-dasharray:none;stroke-dashoffset:0;stroke-opacity:1;paint-order:fill markers stroke"
       id="rect1009"
       width="453.543"
       height="255.118"
       x="0"
       y="-255.11801"
       transform="scale(1,-1)" /><g
       id="g12"
       transform="translate(0,-0.003)"><g
         id="g14"
         transform="scale(0.53873,0.42857)"><g
           id="g16"><g
             id="g18" /><g
             id="g110"><g
               clip-path="url(#clipPath22)"
               id="g108"><g
                 transform="matrix(1,0,0,-1,0,595.28003)"
                 id="g106"><g
                   id="g104"><path
                     d="m 8800.43,4551.969 c -230.895,-192.051 -488.61,-337.078 -783.114,-403.324 -242.148,-54.485 -493.375,-43.258 -738.265,-17.11 -506.34,54.102 -998.989,153.406 -1492.797,-29.973 -226.055,-83.968 -376.477,-206.078 -423.227,-449.671 -48.254,-251.5 0.403,-523.278 22.934,-775.157 60.297,-673.062 -2.816,-1332.625 -473.527,-1856.16 C 4437.023,491.875 3697.387,289.812 3012.602,237.324 2417.441,191.691 1747.73,193.352 1269.824,-219.836 1089.219,-375.977 959.195,-583.184 843.945,-789.574 c -148.265,-265.5 -248.922,-568.992 -487.832,-770.067 -197.16,-165.816 -464.168,-193.824 -711.457,-198.703 -363.554,-7.148 -725.629,23.563 -1089.445,5.602 -0.227,-0.059 -0.465,0.703 -0.715,0.691 375.988,18.574 750.602,-12.238 1126.379,-4.847 279.125,5.476 544.094,63.882 748.246,265.3 223.152,220.118 324.813,555.809 482.742,822.2 128.199,216.171 285.325,412.273 493.625,555.625 594.114,409.066 1394.614,289.75 2067.887,409.828 712.359,126.98 1398.152,491.59 1733.746,1156.808 274.902,544.918 197.957,1149.067 150.5,1733.114 -16.82,207.664 -32.433,433.652 54.035,628.808 94.141,212.567 355.129,292.668 561.485,346.824 460.058,120.879 930.933,5.262 1392.644,-38.164 538.328,-50.66 1015.004,80.746 1433.879,429.215 0.098,0.035 0.77,-0.699 0.766,-0.691"
                     style="fill:#dedfe2;fill-opacity:1;fill-rule:nonzero;stroke:none"
                     id="path24"
                     inkscape:connector-curvature="0" /><path
                     d="m 8479.395,4612.828 c -223.036,-192.215 -473.129,-338.773 -760.707,-408.785 -236.391,-57.523 -482.856,-50.844 -723.36,-29.406 -497.297,44.312 -981.84,133.254 -1462.808,-55.02 -220.149,-86.187 -365.504,-208.465 -407.161,-448.051 -42.988,-247.351 9.379,-512.933 35.782,-759.445 70.652,-658.73 20.101,-1306.344 -432.325,-1827.609 C 4271.871,558.102 3550.309,347.34 2879.953,284.145 c -582.609,-54.942 -1239.117,-64.801 -1700.5,-478.032 -174.355,-156.16 -298.246,-361.5 -407.683,-565.781 -140.774,-262.801 -234.247,-562.027 -464.985,-763.219 -190.418,-165.929 -451.68,-197.961 -693.988,-206.996 -356.254,-13.234 -711.699,10.66 -1068.024,-13.191 -0.214,-0.063 -0.464,0.687 -0.703,0.66 368.239,24.664 735.977,0.883 1104.203,14.57 273.512,10.16 532.247,71.965 728.911,272.899 214.964,219.605 308.859,550.402 459.101,814.242 121.953,214.098 272.61,409.019 474.344,553.113 575.355,411.172 1362.082,307.953 2019.992,437.211 696.102,136.688 1362.102,505.863 1679.649,1163.699 260.109,538.868 174.328,1129.75 117.789,1701.453 -20.047,203.262 -39.235,424.524 42.179,617.305 88.633,209.984 343.094,292.981 544.434,349.602 448.879,126.367 912.414,21.101 1365.805,-13.512 528.566,-40.41 993.589,96.59 1398.171,445.328 0.094,0.035 0.758,-0.684 0.747,-0.668"
                     style="fill:#dedfe2;fill-opacity:1;fill-rule:nonzero;stroke:none"
                     id="path26"
                     inkscape:connector-curvature="0" /><path
                     d="m 8163.707,4667.012 c -215.375,-192.282 -458.043,-340.262 -738.734,-413.824 -230.731,-60.434 -472.442,-58.122 -708.559,-41.231 -488.191,34.945 -964.73,113.785 -1432.934,-78.996 -214.316,-88.258 -354.707,-210.617 -391.425,-446.184 -37.887,-243.199 17.996,-502.636 48.105,-743.824 80.555,-644.504 42.11,-1280.183 -392.43,-1798.918 C 4108.844,620.191 3405.156,401.211 2749.125,327.766 2178.973,263.902 1535.602,242.98 1090.434,-170 922.195,-326.062 804.273,-529.473 700.5,-731.598 567.023,-991.621 480.539,-1286.535 257.805,-1487.707 73.988,-1653.629 -181.551,-1689.516 -418.93,-1702.52 c -348.984,-19.089 -697.816,-1.765 -1046.691,-31.253 -0.211,-0.067 -0.469,0.664 -0.695,0.628 360.535,30.497 721.418,13.493 1082.136,33.235 267.934,14.652 520.489,79.672 709.821,280.004 206.953,218.957 293.32,544.828 436.058,806.031 115.875,211.961 260.215,405.617 455.481,550.324 556.937,412.922 1329.886,325.239 1972.593,463.231 679.997,145.922 1326.5,519.23 1626.489,1169.519 245.734,532.676 151.5,1110.422 86.277,1669.848 -23.141,198.914 -45.746,415.473 30.746,605.84 83.285,207.355 331.297,293.078 527.688,352.039 437.847,131.574 894.035,36.347 1339.023,10.164 518.836,-30.539 972.316,111.738 1362.977,460.574 0.019,-0.023 0.668,-0.726 0.734,-0.652"
                     style="fill:#dedfe2;fill-opacity:1;fill-rule:nonzero;stroke:none"
                     id="path28"
                     inkscape:connector-curvature="0" /><path
                     d="m 7853.266,4714.664 c -207.75,-192.137 -443.121,-341.371 -716.965,-418.262 -225.16,-63.218 -462.125,-65.097 -693.856,-52.586 -479.199,25.844 -947.664,94.957 -1403.312,-102.046 -208.567,-90.196 -344.078,-212.54 -376.031,-444.082 -32.973,-239.051 26.253,-492.403 59.914,-728.305 90.023,-630.387 63.242,-1254.176 -353.817,-1770.106 -421.226,-521.031 -1107.258,-747.75 -1749.066,-831 -557.789,-72.382 -1188.09,-103.929 -1617.383,-516.382 -162.227,-155.864 -274.336,-357.282 -372.582,-557.2 -126.391,-257.168 -206.102,-547.746 -420.98,-748.761 -177.336,-165.793 -427.219,-205.356 -659.68,-222.18 -341.758,-24.703 -683.996,-13.703 -1025.473,-48.598 -0.203,-0.066 -0.469,0.649 -0.699,0.614 352.894,36.074 706.934,25.605 1060.187,51.144 262.383,18.949 508.84,87.016 690.997,286.648 199.105,218.172 278.175,539.09 413.617,797.586 109.945,209.758 248.105,402.063 437.043,547.266 538.843,414.313 1298.023,341.625 1925.66,487.91 664.066,154.715 1291.387,531.735 1574.293,1174.313 231.738,526.383 129.457,1091.093 55.922,1638.347 -26.09,194.586 -51.965,406.481 19.746,594.391 78.086,204.695 319.722,292.977 511.226,354.141 426.938,136.488 875.727,50.953 1312.461,32.996 509.047,-21.086 951.102,126.14 1328.063,474.781 0.09,0.043 0.726,-0.645 0.715,-0.629"
                     style="fill:#dedfe2;fill-opacity:1;fill-rule:nonzero;stroke:none"
                     id="path30"
                     inkscape:connector-curvature="0" /><path
                     d="m 7548.215,4756.094 c -200.414,-191.942 -428.52,-342.223 -695.707,-422.356 -219.602,-65.82 -451.84,-71.699 -679.262,-63.457 -470.121,17.149 -930.516,76.86 -1373.781,-124.074 -202.903,-91.988 -333.633,-214.238 -360.985,-441.754 -28.218,-234.891 34.192,-482.219 71.223,-712.883 99.059,-616.386 83.504,-1228.312 -316.457,-1741.211 C 3789.285,732.406 3120.703,498.391 2493.004,405.777 1947.473,325.258 1330.168,283.516 916.43,-128.156 760.082,-283.727 653.641,-483.078 560.77,-680.734 441.293,-934.992 368.133,-1221.195 160.949,-1421.926 c -170.984,-165.558 -415.254,-208.621 -642.832,-229.101 -334.582,-30.082 -670.25,-25.172 -1004.379,-65.231 -0.199,-0.074 -0.476,0.621 -0.691,0.582 345.301,41.414 692.523,37.227 1038.363,68.317 256.875,23.086 497.293,94.035 672.426,292.851 191.422,217.281 263.426,533.207 391.754,788.914 104.176,207.504 236.312,398.375 419.019,543.949 521.09,415.379 1266.52,357.149 1879.246,511.321 648.29,163.043 1256.75,543.379 1523.043,1178.125 218.129,519.949 108.184,1071.742 26.707,1606.926 -28.914,190.289 -57.91,397.558 9.165,582.988 73.023,201.98 308.371,292.664 495.042,355.906 416.165,141.121 857.563,64.977 1285.899,54.805 499.426,-11.867 930.254,140.051 1293.711,488.226 0.098,0.036 0.723,-0.632 0.793,-0.558"
                     style="fill:#dedfe2;fill-opacity:1;fill-rule:nonzero;stroke:none"
                     id="path32"
                     inkscape:connector-curvature="0" /><path
                     d="m 7248.355,4791.395 c -193.097,-191.551 -414.132,-342.786 -674.617,-425.879 -214.144,-68.293 -441.722,-78.075 -664.758,-73.864 -461.14,8.735 -913.468,59.364 -1344.523,-145.199 -197.309,-93.648 -323.371,-215.738 -346.273,-439.223 -23.629,-230.734 41.785,-472.105 82.046,-697.578 107.672,-602.507 102.93,-1202.609 -280.339,-1712.23 C 3632.801,782.77 2981.445,541.898 2367.738,440.348 1834.363,352.062 1229.973,300.555 831.477,-110.078 680.875,-265.254 579.973,-462.5 492.32,-657.836 379.559,-909.125 312.758,-1190.922 113.117,-1391.242 c -164.773,-165.231 -403.469,-211.637 -626.203,-235.613 -327.457,-35.219 -656.574,-36.165 -983.414,-81.168 -0.195,-0.071 -0.473,0.597 -0.691,0.558 337.769,46.524 678.211,48.367 1016.675,84.789 251.407,27.028 485.86,100.703 654.114,298.594 183.922,216.266 249.074,527.195 370.48,780.051 98.563,205.187 224.813,394.562 401.418,540.39 503.66,416.106 1235.363,371.817 1833.332,533.457 632.692,170.946 1222.606,554.207 1472.75,1180.969 204.887,513.422 87.649,1052.426 -1.394,1575.641 -31.606,186.035 -63.586,388.707 -1.024,571.625 68.125,199.246 297.266,292.176 479.168,357.375 405.512,145.465 839.504,78.406 1259.574,75.804 489.731,-3.093 909.426,153.211 1259.762,500.758 0.09,0.043 0.703,-0.609 0.691,-0.593"
                     style="fill:#dedfe2;fill-opacity:1;fill-rule:nonzero;stroke:none"
                     id="path34"
                     inkscape:connector-curvature="0" /><path
                     d="m 6953.922,4820.922 c -185.981,-191.059 -400.129,-343.16 -654.024,-429.074 -208.777,-70.637 -431.64,-84.09 -650.343,-83.793 -452.176,0.656 -896.434,42.523 -1315.469,-165.399 -191.809,-95.187 -313.274,-217.015 -331.891,-436.48 -19.207,-226.578 49.055,-462.067 92.387,-682.391 C 4210.469,2435.02 4216.113,1846.707 3849.164,1340.574 3478.547,829.441 2844.191,582.176 2244.355,472.098 1723.027,376.402 1131.461,315.547 747.883,-93.82 602.93,-248.504 507.398,-443.586 424.824,-636.57 318.609,-884.824 257.969,-1162.203 65.699,-1361.992 c -158.676,-164.789 -391.859,-214.371 -609.781,-241.696 -320.391,-40.144 -642.984,-46.718 -962.594,-96.445 -0.195,-0.066 -0.476,0.582 -0.691,0.547 330.297,51.395 663.976,59.051 995.133,100.547 245.976,30.816 474.531,107.051 636.074,303.918 176.57,215.152 235.105,521.059 349.777,771 93.09,202.82 213.594,390.617 384.207,536.59 486.574,416.531 1204.574,385.672 1787.973,554.375 617.242,178.414 1188.93,564.226 1423.379,1182.898 192.035,506.797 67.867,1033.145 -28.395,1544.492 -34.179,181.813 -69.004,379.934 -10.808,560.313 63.351,196.476 286.367,291.5 463.558,358.531 395.008,149.551 821.574,91.262 1233.391,95.918 480.082,5.348 888.836,165.793 1226.32,512.504 0.012,-0.016 0.692,-0.594 0.68,-0.578"
                     style="fill:#dedfe2;fill-opacity:1;fill-rule:nonzero;stroke:none"
                     id="path36"
                     inkscape:connector-curvature="0" /><path
                     d="m 6664.809,4844.82 c -179.129,-190.547 -386.344,-343.25 -633.762,-431.828 -203.426,-72.812 -421.692,-89.851 -636.078,-93.308 -443.25,-7.118 -879.449,26.3 -1286.633,-184.696 -186.379,-96.597 -303.371,-218.109 -317.856,-433.558 -14.937,-222.434 56.02,-452.086 102.282,-667.317 C 4016.457,2458.977 4032.086,1882.371 3681.07,1379.945 3326.543,872.559 2708.957,619.281 2122.859,501.098 1613.488,398.352 1034.641,328.543 665.664,-79.305 526.23,-233.43 435.934,-426.297 358.305,-616.879 c -99.86,-245.172 -154.551,-518.113 -339.586,-717.25 -152.715,-164.25 -380.446,-216.863 -593.59,-247.383 -313.367,-44.847 -629.477,-56.828 -941.918,-111.054 -0.184,-0.075 -0.477,0.566 -0.688,0.523 322.895,56.043 649.848,69.273 973.743,115.633 240.593,34.422 463.324,113.078 618.293,308.824 169.398,213.934 221.523,514.797 329.644,761.766 87.774,200.414 202.672,386.562 367.402,532.593 469.833,416.645 1174.172,398.704 1743.129,574.086 601.996,185.485 1155.774,573.485 1374.977,1183.946 179.543,500.082 48.793,1013.89 -54.336,1513.488 -36.617,177.637 -74.152,371.246 -20.207,549.055 58.73,193.679 275.715,290.656 448.258,359.402 384.636,153.375 803.765,103.551 1207.375,115.188 470.496,13.468 868.429,177.761 1193.258,523.386 0.093,0.043 0.679,-0.578 0.75,-0.504"
                     style="fill:#dedfe2;fill-opacity:1;fill-rule:nonzero;stroke:none"
                     id="path38"
                     inkscape:connector-curvature="0" /><path
                     d="m 6380.91,4863.227 c -172.215,-189.778 -372.765,-343.055 -613.805,-434.149 -198.132,-74.848 -411.796,-95.297 -621.882,-102.359 -434.375,-14.586 -862.528,10.695 -1258.043,-203.121 -181.055,-97.887 -293.633,-219.004 -304.133,-430.442 -10.832,-218.297 62.664,-442.199 111.695,-652.383 C 3825.863,2479.121 3851.07,1914.172 3515.613,1415.66 3176.797,912.215 2575.766,653.348 2003.27,527.441 1505.727,417.984 939.516,339.621 584.828,-66.492 450.789,-219.961 365.582,-410.566 292.758,-598.727 c -93.676,-242.035 -142.602,-510.519 -320.574,-708.902 -146.875,-163.625 -369.204,-219.098 -577.61,-252.672 -306.41,-49.34 -616.07,-66.504 -921.406,-125.019 -0.184,-0.075 -0.477,0.543 -0.684,0.5 315.555,60.472 635.825,79.047 952.528,130.05 235.242,37.868 452.218,118.793 600.773,313.336 162.383,212.606 208.317,508.418 310.059,752.368 82.601,197.964 192.043,382.402 351.011,528.363 453.391,416.476 1144.129,410.984 1698.844,592.664 586.918,192.141 1123.09,581.969 1327.492,1184.141 167.418,493.273 30.438,994.695 -79.226,1482.648 -38.945,173.5 -79.059,362.633 -29.227,537.863 54.246,190.86 265.278,289.645 433.227,359.989 374.406,156.937 786.117,115.293 1181.543,133.621 460.972,21.277 848.23,189.152 1160.746,533.55 0.012,-0.015 0.668,-0.562 0.656,-0.546"
                     style="fill:#dedfe2;fill-opacity:1;fill-rule:nonzero;stroke:none"
                     id="path40"
                     inkscape:connector-curvature="0" /><path
                     d="m 6102.375,4876.449 c -165.566,-188.992 -359.551,-342.699 -594.25,-436.117 -192.934,-76.766 -402.023,-100.477 -607.84,-111.008 -425.543,-21.75 -845.672,-4.316 -1229.703,-220.687 -175.785,-99.063 -284.074,-219.711 -290.738,-427.16 -6.875,-214.168 69.008,-432.387 120.679,-637.575 C 3638.691,2495.598 3673.09,1942.246 3352.816,1447.824 3029.332,948.508 2444.617,684.453 1885.594,551.203 1399.754,435.383 846.078,348.859 505.363,-55.324 376.605,-208.062 296.352,-396.359 228.195,-582.047 140.527,-820.914 97.168,-1084.934 -73.883,-1282.449 c -141.164,-162.914 -358.152,-221.102 -561.867,-257.59 -299.504,-53.617 -602.75,-75.758 -901.055,-138.352 -0.175,-0.078 -0.472,0.524 -0.672,0.473 308.274,64.703 621.899,88.402 931.469,143.828 229.949,41.152 441.258,124.207 583.535,317.445 155.524,211.2 195.477,501.954 291.02,742.825 77.578,195.472 181.687,378.14 335.015,523.953 437.286,416.023 1114.477,422.488 1655.11,610.082 572.027,198.43 1090.914,589.754 1280.945,1183.531 155.649,486.395 12.774,975.563 -103.094,1451.996 -41.156,169.399 -83.722,354.11 -37.878,526.731 49.902,188.019 255.074,288.472 418.492,360.308 364.316,160.266 768.605,126.504 1155.91,151.254 451.496,28.766 828.203,199.953 1128.605,542.883 0.09,0.047 0.735,-0.484 0.723,-0.469"
                     style="fill:#dedfe2;fill-opacity:1;fill-rule:nonzero;stroke:none"
                     id="path42"
                     inkscape:connector-curvature="0" /><path
                     d="m 5829.102,4884.621 c -159.098,-188.133 -346.571,-342.101 -575.036,-437.699 -187.8,-78.563 -392.355,-105.391 -593.925,-119.242 -416.766,-28.621 -828.887,-18.735 -1201.618,-237.43 -170.625,-100.117 -274.699,-220.242 -277.668,-423.703 -3.062,-210.055 75.067,-422.656 129.235,-622.91 C 3454.938,2508.539 3498.145,1966.711 3192.684,1476.566 2884.152,981.57 2315.52,712.691 1769.832,572.492 1295.578,450.617 754.324,356.301 427.277,-45.734 303.684,-197.668 228.25,-383.617 164.621,-566.809 c -81.836,-235.652 -119.812,-495.195 -284.09,-691.738 -135.582,-162.121 -347.281,-222.887 -546.347,-262.144 -292.664,-57.704 -589.539,-84.606 -880.875,-151.086 -0.172,-0.078 -0.473,0.507 -0.672,0.461 301.078,68.703 608.097,97.32 910.597,156.964 224.704,44.293 430.407,129.325 566.559,321.18 148.824,209.695 183.008,495.391 272.535,733.149 72.688,192.933 171.598,373.789 319.399,519.339 421.511,415.313 1085.211,433.266 1611.945,626.438 557.316,204.301 1059.242,596.801 1235.328,1182.113 144.238,479.461 -4.219,956.504 -125.969,1421.535 -43.246,165.348 -88.133,345.68 -46.16,515.676 45.684,185.164 245.074,287.145 404.039,360.371 354.375,163.348 751.246,137.188 1130.473,168.094 442.086,35.945 808.414,210.215 1097.008,551.531 0.089,0.047 0.722,-0.469 0.711,-0.453"
                     style="fill:#dedfe2;fill-opacity:1;fill-rule:nonzero;stroke:none"
                     id="path44"
                     inkscape:connector-curvature="0" /><path
                     d="m 5561.066,4887.926 c -152.707,-187.129 -333.839,-341.274 -556.148,-438.906 -182.75,-80.235 -382.793,-110.036 -580.145,-127.075 -408.035,-35.207 -812.183,-32.582 -1173.816,-253.351 -165.519,-101.067 -265.473,-220.606 -264.902,-420.09 0.605,-205.961 80.84,-413.02 137.375,-608.387 C 3274.59,2518.07 3326.246,1987.695 3035.215,1501.988 2741.281,1011.484 2188.5,738.16 1655.992,591.359 1193.195,463.77 664.262,362.031 350.574,-37.68 232.027,-188.723 161.281,-372.305 102.047,-552.965 25.859,-785.363 -6.898,-1040.434 -164.559,-1235.91 c -130.125,-161.242 -336.597,-224.438 -531.062,-266.34 -285.895,-61.574 -576.445,-93.039 -860.879,-163.203 -0.168,-0.078 -0.473,0.48 -0.668,0.437 293.949,72.516 594.414,105.825 889.918,169.485 219.5,47.273 419.676,134.148 549.852,324.554 142.285,208.102 170.886,488.735 254.57,723.332 67.945,190.372 161.805,369.352 304.18,514.567 406.054,414.332 1056.336,443.32 1569.351,641.711 542.805,209.832 1028.074,603.183 1190.637,1179.949 133.156,472.461 -20.543,937.535 -147.867,1391.289 -45.227,161.344 -92.332,337.336 -54.102,504.691 41.613,182.29 235.317,285.68 389.879,360.192 344.562,166.199 734.051,147.367 1105.254,184.164 432.734,42.816 788.836,219.93 1065.887,559.465 0.043,0.012 0.671,-0.481 0.675,-0.457"
                     style="fill:#dedfe2;fill-opacity:1;fill-rule:nonzero;stroke:none"
                     id="path46"
                     inkscape:connector-curvature="0" /><path
                     d="m 5298.285,4886.582 c -146.488,-186.059 -321.39,-340.262 -537.629,-439.773 -177.765,-81.789 -373.344,-114.434 -566.508,-134.524 -399.363,-41.508 -795.578,-45.875 -1146.261,-268.476 -160.532,-101.911 -256.457,-220.805 -252.469,-416.344 4.121,-201.875 86.32,-403.473 145.09,-594.008 C 3097.637,2524.32 3157.371,2005.309 2880.43,1524.207 2600.723,1038.348 2063.539,760.945 1544.074,607.918 1092.621,474.898 575.875,366.094 275.242,-31.098 161.629,-181.199 95.422,-362.355 40.473,-540.457 c -70.7,-229.121 -98.438,-479.711 -249.629,-674.035 -124.789,-160.281 -326.094,-225.77 -515.992,-270.184 -279.192,-65.269 -563.461,-101.097 -841.079,-174.746 -0.16,-0.082 -0.468,0.461 -0.656,0.406 286.895,76.129 580.852,113.942 869.43,181.407 214.348,50.105 409.086,138.703 533.414,327.578 135.906,206.441 159.129,482.011 237.133,713.414 63.328,187.777 152.273,364.824 289.34,509.609 390.921,413.113 1027.859,452.692 1527.336,655.953 528.472,215 997.414,608.914 1146.871,1177.071 122.421,465.41 -36.219,918.66 -168.817,1361.265 -47.105,157.371 -96.297,329.086 -61.691,493.793 37.664,179.406 225.762,284.071 375.996,359.754 334.906,168.828 717.019,157.047 1080.258,199.488 423.453,49.399 769.476,229.118 1035.226,566.7 0.039,0.011 0.676,-0.457 0.672,-0.434"
                     style="fill:#dedfe2;fill-opacity:1;fill-rule:nonzero;stroke:none"
                     id="path48"
                     inkscape:connector-curvature="0" /><path
                     d="m 5040.727,4880.754 c -140.407,-184.895 -309.211,-339.051 -519.469,-440.309 -172.844,-83.218 -364.008,-118.574 -553.008,-141.586 -390.766,-47.531 -779.07,-58.617 -1119.016,-282.839 -155.601,-102.649 -247.593,-220.844 -240.332,-412.446 7.508,-197.82 91.543,-394.015 152.418,-579.777 162.762,-496.383 230.219,-1004.117 -33,-1480.469 C 2462.465,1062.273 1940.668,781.137 1434.098,622.219 993.832,484.082 489.176,368.57 201.293,-25.934 92.5,-175.02 30.711,-353.738 -20.109,-529.27 c -65.364,-225.804 -88.262,-471.91 -233.133,-664.988 -119.574,-159.265 -315.778,-226.914 -501.164,-273.699 -272.547,-68.773 -550.59,-108.766 -821.453,-185.727 -0.153,-0.089 -0.473,0.45 -0.649,0.391 279.918,79.547 567.418,121.648 849.129,192.738 209.262,52.789 398.625,142.977 517.262,330.254 129.676,204.688 147.711,475.223 220.207,703.387 58.855,185.144 143,360.226 274.883,504.508 376.117,411.66 999.781,461.371 1485.898,669.191 514.348,219.824 967.266,613.992 1104.024,1173.492 112.019,458.317 -51.266,899.887 -188.836,1331.469 -48.868,153.461 -100.039,320.934 -68.942,482.984 33.844,176.5 216.426,282.325 362.395,359.094 325.394,171.231 700.16,166.246 1055.496,214.082 414.234,55.688 750.336,237.789 1005.047,573.258 0.039,0.02 0.664,-0.437 0.672,-0.41"
                     style="fill:#dedfe2;fill-opacity:1;fill-rule:nonzero;stroke:none"
                     id="path50"
                     inkscape:connector-curvature="0" /><path
                     d="M 4788.344,4870.621 C 4653.895,4686.973 4491.066,4532.969 4286.703,4430.098 4118.695,4345.566 3931.918,4307.621 3747.047,4281.824 3364.824,4228.523 2984.379,4211 2654.996,3985.371 2504.227,3882.082 2416.078,3764.648 2426.48,3576.957 c 10.754,-193.773 96.497,-384.668 159.356,-565.711 168.059,-483.781 242.898,-980.324 -6.949,-1451.773 C 2326.539,1083.359 1819.875,798.824 1326.035,634.355 896.84,491.391 404.137,369.5 128.707,-22.148 24.629,-170.148 -32.879,-346.395 -79.68,-519.336 c -60.199,-222.453 -78.418,-464.098 -217.113,-655.855 -114.48,-158.157 -305.645,-227.836 -486.566,-276.883 -265.989,-72.09 -537.848,-116.067 -802.043,-196.149 -0.149,-0.089 -0.469,0.434 -0.641,0.368 273.023,82.777 554.121,128.984 829.047,203.5 204.219,55.339 388.293,147 501.375,332.605 123.605,202.867 136.644,468.367 203.785,693.266 54.524,182.504 134,355.566 260.797,499.257 361.617,409.973 972.109,469.407 1445.062,681.465 500.418,224.305 937.614,618.453 1062.079,1169.242 101.941,451.184 -65.696,881.227 -207.95,1301.922 -50.535,149.598 -103.558,312.883 -75.867,472.254 30.141,173.602 207.305,280.469 349.082,358.227 316.02,173.433 683.465,174.965 1030.957,227.957 405.098,61.683 731.434,245.961 975.356,579.172 0.039,0.015 0.66,-0.418 0.664,-0.391"
                     style="fill:#dedfe2;fill-opacity:1;fill-rule:nonzero;stroke:none"
                     id="path52"
                     inkscape:connector-curvature="0" /><path
                     d="m 4541.129,4856.359 c -128.649,-182.332 -285.613,-336.078 -484.18,-440.425 -163.238,-85.743 -345.664,-126.145 -526.441,-154.602 -373.766,-58.809 -746.395,-82.5 -1065.387,-309.328 -146.027,-103.832 -230.418,-220.461 -217.004,-404.27 13.879,-189.765 101.195,-375.406 165.918,-551.796 173.043,-471.34 254.922,-956.79 18.102,-1423.211 C 2192.941,1101.688 1701.164,814.082 1219.902,644.391 801.645,496.891 320.758,368.953 57.5,-19.676 -41.988,-166.539 -95.34,-340.297 -138.246,-510.613 c -55.195,-219.098 -68.906,-456.282 -201.57,-646.621 -109.508,-157.012 -295.7,-228.582 -472.207,-279.762 -259.493,-75.231 -525.227,-123 -782.829,-206.035 -0.148,-0.086 -0.464,0.414 -0.64,0.355 266.215,85.821 540.965,135.942 809.183,213.699 199.231,57.743 378.098,150.75 485.758,334.629 117.684,200.989 125.91,461.465 187.871,683.067 50.309,179.832 125.246,350.836 247.082,493.871 347.438,408.078 944.848,476.808 1404.813,692.789 486.687,228.453 908.484,622.32 1021.035,1164.359 92.184,444.016 -79.512,862.692 -226.176,1272.633 -52.109,145.77 -106.879,304.922 -82.472,461.621 26.574,170.692 198.41,278.485 336.039,357.133 306.808,175.434 666.968,183.246 1006.679,241.148 396.035,67.418 712.766,253.653 946.149,584.454 0.047,0.023 0.656,-0.395 0.66,-0.368"
                     style="fill:#dedfe2;fill-opacity:1;fill-rule:nonzero;stroke:none"
                     id="path54"
                     inkscape:connector-curvature="0" /><path
                     d="m 4299.039,4838.148 c -122.977,-180.937 -274.199,-334.359 -467.059,-440.035 -158.531,-86.851 -336.675,-129.586 -513.386,-160.586 -365.367,-64.047 -730.227,-93.675 -1039.035,-321.488 -141.352,-104.289 -222.067,-220.062 -205.766,-400.012 16.852,-185.773 105.629,-366.246 172.094,-538.047 177.707,-459.058 266.301,-933.507 42.168,-1394.777 C 2061.656,1117.367 1584.531,827.004 1115.695,652.41 708.234,500.652 239.047,366.996 -12.348,-18.477 c -95,-145.668 -144.316,-316.906 -183.449,-484.589 -50.348,-215.719 -59.726,-448.454 -186.504,-637.309 -104.648,-155.781 -285.933,-229.145 -458.07,-282.344 -253.082,-78.183 -512.746,-129.57 -763.824,-215.394 -0.149,-0.082 -0.465,0.402 -0.633,0.34 259.473,88.699 527.933,142.539 789.523,223.363 194.301,60.019 368.039,154.25 470.422,336.359 111.91,199.024 115.5,454.5 172.438,672.785 46.226,177.141 116.757,346.059 233.722,488.348 333.575,405.977 918.008,483.602 1365.176,703.207 473.145,232.293 879.852,625.606 980.883,1158.871 82.75,436.828 -92.738,844.281 -243.539,1243.613 -53.57,141.985 -110,297.055 -88.762,451.082 23.125,167.77 189.707,276.387 323.266,355.844 297.738,177.227 650.648,191.063 982.656,253.649 387.059,72.882 694.332,260.875 917.426,589.144 0.039,0.016 0.652,-0.375 0.656,-0.344"
                     style="fill:#dedfe2;fill-opacity:1;fill-rule:nonzero;stroke:none"
                     id="path56"
                     inkscape:connector-curvature="0" /><path
                     d="m 4062.047,4816.125 c -117.438,-179.461 -263.055,-332.441 -450.277,-439.352 -153.915,-87.859 -327.797,-132.789 -500.489,-166.207 -357.051,-69.058 -714.191,-104.359 -1012.988,-332.964 -136.77,-104.653 -213.918,-219.524 -194.848,-395.637 19.7,-181.817 109.825,-357.207 177.934,-524.465 182.07,-446.945 277.051,-910.5 65.254,-1366.504 C 1932.711,1130.48 1469.992,837.676 1013.41,658.484 616.602,502.734 158.98,363.668 -80.836,-18.5 -171.465,-162.922 -216.863,-331.621 -252.348,-496.664 -298,-708.988 -303.195,-937.281 -424.23,-1124.586 c -99.911,-154.492 -276.356,-229.516 -444.18,-284.613 -246.738,-80.989 -500.391,-135.813 -745.043,-224.239 -0.137,-0.089 -0.457,0.379 -0.625,0.321 252.832,91.394 515.066,148.773 770.098,232.492 189.433,62.164 358.121,157.52 455.355,337.781 106.285,197.016 105.426,447.504 157.492,662.449 42.278,174.438 108.512,341.223 220.731,482.715 320.015,403.676 891.566,489.793 1326.132,712.731 459.817,235.82 851.743,628.344 941.618,1152.797 73.621,429.617 -105.391,826.015 -260.063,1214.863 -54.953,138.269 -112.922,289.301 -94.738,440.648 19.785,164.856 181.207,274.18 310.773,354.364 288.813,178.828 634.512,198.449 958.895,265.492 378.152,78.082 676.129,267.621 889.183,593.25 0.036,0.015 0.645,-0.367 0.649,-0.34"
                     style="fill:#dedfe2;fill-opacity:1;fill-rule:nonzero;stroke:none"
                     id="path58"
                     inkscape:connector-curvature="0" /><path
                     d="m 3830.117,4790.48 c -112.043,-177.933 -252.152,-330.386 -433.847,-438.386 -149.36,-88.766 -319.04,-135.805 -487.75,-171.516 -348.813,-73.82 -698.293,-114.558 -987.258,-343.773 -132.274,-104.926 -205.922,-218.848 -184.207,-391.157 22.425,-177.89 113.781,-348.269 183.406,-511.054 186.148,-434.985 287.199,-887.758 87.418,-1338.379 C 1806.078,1141.125 1357.527,846.164 913.039,662.68 526.742,503.199 80.547,359.031 -147.973,-19.699 c -86.355,-143.121 -127.961,-309.262 -159.922,-471.66 -41.101,-208.911 -42.277,-432.786 -157.707,-618.457 -95.285,-153.168 -266.96,-229.719 -430.527,-286.618 -240.465,-83.621 -488.164,-141.718 -726.469,-232.586 -0.129,-0.097 -0.457,0.36 -0.621,0.301 246.27,93.922 502.336,154.676 750.895,241.098 184.621,64.207 348.344,160.562 440.562,338.933 100.813,194.942 95.668,440.461 143.012,652.059 38.457,171.719 100.512,336.344 208.09,476.969 306.773,401.191 865.547,495.41 1287.703,721.394 446.687,239.055 824.133,630.543 903.242,1146.184 64.793,422.383 -117.48,807.883 -275.769,1186.391 -56.231,134.597 -115.653,281.652 -100.426,430.32 16.566,161.933 172.922,271.867 298.555,352.687 280.039,180.258 618.57,205.414 935.39,276.707 369.34,83.028 658.176,273.934 861.442,596.778 0.039,0.019 0.636,-0.348 0.64,-0.321"
                     style="fill:#dedfe2;fill-opacity:1;fill-rule:nonzero;stroke:none"
                     id="path60"
                     inkscape:connector-curvature="0" /><path
                     d="m 3603.203,4761.367 c -106.765,-176.344 -241.496,-328.183 -417.75,-437.176 -144.891,-89.574 -310.406,-138.586 -475.168,-176.492 -340.648,-78.347 -682.531,-124.277 -961.855,-353.922 -127.864,-105.117 -198.106,-218.058 -173.86,-386.582 25.047,-173.992 117.508,-339.433 188.551,-497.812 189.934,-423.195 296.754,-865.289 108.649,-1310.442 C 1681.77,1149.387 1247.137,852.559 814.582,665.078 438.652,502.117 3.746,353.145 -213.758,-22.023 c -82.195,-141.778 -120.137,-305.356 -148.668,-465.086 -36.707,-205.485 -34.027,-424.953 -143.988,-608.942 -90.774,-151.773 -257.742,-229.769 -417.09,-288.34 -234.293,-86.093 -476.101,-147.289 -708.137,-240.457 -0.129,-0.093 -0.453,0.348 -0.609,0.282 239.793,96.293 489.754,160.238 731.918,249.234 179.875,66.086 338.711,163.355 426.047,339.781 95.469,192.821 86.215,433.403 128.996,641.629 34.746,168.984 92.754,331.422 195.793,471.11 293.828,398.527 839.953,500.476 1249.887,729.238 433.757,241.992 797.035,632.222 865.73,1139.031 56.27,415.156 -129.023,789.902 -290.668,1158.223 -57.433,130.968 -118.203,274.097 -105.832,420.09 13.461,159.019 164.844,269.464 286.609,350.843 271.415,181.496 602.825,211.973 912.157,287.289 360.629,87.719 640.48,279.813 834.187,599.758 0.031,0.024 0.625,-0.32 0.629,-0.293"
                     style="fill:#dedfe2;fill-opacity:1;fill-rule:nonzero;stroke:none"
                     id="path62"
                     inkscape:connector-curvature="0" /><path
                     d="m 3381.285,4728.93 c -101.652,-174.688 -231.101,-325.844 -402.008,-435.703 -140.492,-90.289 -301.902,-141.176 -462.75,-181.157 -332.578,-82.644 -666.914,-133.523 -936.781,-363.425 -123.527,-105.243 -190.445,-217.153 -163.789,-381.934 27.539,-170.125 121.008,-330.711 193.371,-484.738 193.434,-411.575 305.734,-843.102 128.981,-1282.684 C 1559.773,1155.355 1138.82,856.934 718.031,665.738 352.328,499.551 -71.434,346.055 -278.207,-25.434 c -78.137,-140.382 -112.516,-301.375 -137.754,-458.449 -32.457,-202.051 -26.051,-417.144 -130.691,-599.387 -86.383,-150.316 -248.707,-229.64 -403.914,-289.789 -228.172,-88.414 -464.153,-152.554 -690.008,-247.855 -0.125,-0.094 -0.453,0.332 -0.606,0.269 233.403,98.5 477.328,165.469 713.18,256.852 175.191,67.875 329.215,165.945 411.805,340.391 90.265,190.648 77.074,426.316 115.441,631.168 31.164,166.242 85.238,326.464 183.84,465.156 281.184,395.695 814.769,504.996 1212.684,736.273 421.035,244.653 770.433,633.407 829.085,1131.379 48.028,407.914 -140.031,772.078 -304.8,1130.356 -58.559,127.39 -120.578,266.656 -110.953,409.976 10.468,156.102 156.968,266.961 274.929,348.821 262.934,182.57 587.274,218.128 889.207,297.257 351.992,92.18 623.032,285.274 807.414,602.227 0.036,0.023 0.629,-0.309 0.633,-0.281"
                     style="fill:#dedfe2;fill-opacity:1;fill-rule:nonzero;stroke:none"
                     id="path64"
                     inkscape:connector-curvature="0" /><path
                     d="m 3164.297,4693.332 c -96.641,-172.98 -220.945,-323.375 -386.59,-434 -136.16,-90.91 -293.504,-143.555 -450.496,-185.512 -324.59,-86.722 -651.445,-142.324 -912.043,-372.312 -119.273,-105.281 -182.953,-216.133 -153.996,-377.203 29.906,-166.293 124.301,-322.094 197.867,-471.848 196.68,-400.121 314.156,-821.191 148.434,-1255.125 C 1440.086,1159.109 1032.57,859.363 623.371,664.723 267.75,495.551 -145.008,337.816 -341.324,-29.883 c -74.188,-138.953 -105.125,-297.351 -127.168,-451.754 -28.344,-198.613 -18.383,-409.34 -117.82,-589.777 -82.094,-148.844 -239.86,-229.383 -390.961,-290.996 -222.153,-90.586 -452.372,-157.504 -672.125,-254.805 -0.125,-0.082 -0.45,0.324 -0.602,0.262 227.102,100.562 465.066,170.383 694.688,264.019 170.558,69.532 319.863,168.313 397.82,340.715 85.219,188.434 68.238,419.219 102.332,620.68 27.691,163.488 77.953,321.477 172.234,459.125 268.836,392.699 790,508.992 1176.09,742.527 408.516,247.039 744.344,634.106 793.289,1123.246 40.086,400.684 -150.508,754.426 -318.164,1102.789 -59.578,123.875 -122.766,259.325 -115.785,399.977 7.57,153.203 149.277,264.383 263.504,346.648 254.609,183.481 571.937,223.895 866.535,306.641 343.457,96.395 605.824,290.332 781.133,604.18 0.039,0.019 0.613,-0.289 0.621,-0.262"
                     style="fill:#dedfe2;fill-opacity:1;fill-rule:nonzero;stroke:none"
                     id="path66"
                     inkscape:connector-curvature="0" /><path
                     d="m 2952.203,4654.715 c -91.758,-171.231 -211.027,-320.785 -371.5,-432.055 -131.914,-91.453 -285.25,-145.762 -438.418,-189.586 -316.683,-90.566 -636.125,-150.679 -887.629,-380.601 -115.117,-105.246 -175.625,-214.996 -144.484,-372.395 32.168,-162.48 127.367,-313.594 202.051,-459.121 199.652,-388.848 322.043,-799.578 167.039,-1227.781 C 1322.695,1160.734 928.375,859.922 530.605,662.109 184.906,490.176 -216.988,328.477 -403.117,-35.324 c -70.332,-137.477 -97.942,-293.278 -116.903,-445.008 -24.382,-195.18 -11.003,-401.574 -105.382,-580.145 -77.91,-147.308 -231.176,-228.961 -378.239,-291.968 -216.211,-92.594 -440.73,-162.145 -654.472,-261.289 -0.117,-0.09 -0.449,0.312 -0.594,0.242 220.891,102.469 452.953,174.996 676.434,270.719 165.992,71.093 310.652,170.476 384.117,340.812 80.297,186.172 59.695,412.106 89.66,610.172 24.34,160.738 70.902,316.465 160.953,453.012 256.785,389.55 765.66,512.488 1140.113,748.035 396.203,249.164 718.754,634.344 758.344,1114.656 32.426,393.457 -160.473,736.938 -330.797,1075.547 -60.531,120.402 -124.793,252.086 -120.363,390.09 4.805,150.304 141.793,261.719 252.351,344.32 246.43,184.215 556.797,229.281 844.157,315.445 335.019,100.387 588.871,294.985 755.332,605.645 0.039,0.016 0.613,-0.27 0.609,-0.246"
                     style="fill:#dedfe2;fill-opacity:1;fill-rule:nonzero;stroke:none"
                     id="path68"
                     inkscape:connector-curvature="0" /><path
                     d="m 2744.973,4613.219 c -87.008,-169.418 -201.356,-318.063 -356.746,-429.895 -127.743,-91.91 -277.114,-147.769 -426.512,-193.355 C 1652.84,3895.754 1340.746,3831.34 1098.16,3601.656 987.121,3496.504 929.68,3387.895 962.918,3234.145 997.242,3075.414 1093.145,2928.93 1168.855,2787.562 1371.227,2409.82 1498.246,2009.297 1353.648,1586.898 1207.602,1160.32 826.23,858.684 439.707,657.949 103.789,483.484 -287.387,318.086 -463.598,-41.719 c -66.582,-135.965 -90.98,-289.168 -106.957,-438.219 -20.547,-191.742 -3.89,-393.832 -93.34,-570.5 -73.851,-145.726 -222.687,-228.402 -365.761,-292.675 -210.356,-94.477 -429.242,-166.504 -637.063,-267.36 -0.117,-0.086 -0.441,0.293 -0.582,0.227 214.762,104.238 440.992,179.316 658.422,276.973 161.5,72.535 301.594,172.441 370.676,340.675 75.523,183.871 51.457,404.989 77.43,599.657 21.101,157.972 64.062,311.418 149.996,446.812 245.031,386.262 741.746,515.504 1104.754,752.817 384.101,251.039 693.671,634.14 724.242,1105.652 25.023,386.234 -169.946,719.617 -342.723,1048.609 -61.394,116.996 -126.644,244.969 -124.672,380.317 2.129,147.414 134.512,258.984 241.457,341.851 238.407,184.805 541.864,234.301 822.074,323.695 326.668,104.145 572.176,299.262 730.02,606.637 0.023,0.02 0.594,-0.258 0.598,-0.23"
                     style="fill:#dedfe2;fill-opacity:1;fill-rule:nonzero;stroke:none"
                     id="path70"
                     inkscape:connector-curvature="0" /><path
                     d="m 2542.543,4568.984 c -82.387,-167.558 -191.918,-315.23 -342.328,-427.519 -123.637,-92.281 -269.094,-149.61 -414.75,-196.848 -301.16,-97.652 -605.988,-166.144 -839.844,-395.457 -107.043,-104.976 -161.476,-212.43 -126.266,-362.566 36.372,-155.008 132.891,-296.965 209.528,-434.239 204.867,-366.8 336.246,-757.226 201.754,-1173.757 C 1094.785,1157.938 726.125,855.715 350.691,652.324 24.398,475.535 -356.215,306.695 -522.766,-49.02 c -62.941,-134.429 -84.222,-285.015 -97.332,-431.402 -16.851,-188.305 2.938,-386.113 -81.711,-560.824 -69.882,-144.117 -214.367,-227.715 -353.511,-293.172 -204.575,-96.219 -417.907,-170.574 -619.887,-273.004 -0.109,-0.094 -0.441,0.281 -0.574,0.207 208.73,105.867 429.207,183.34 640.66,282.801 157.066,73.871 292.676,174.203 357.504,340.297 70.879,181.531 43.488,397.871 65.613,589.137 17.977,155.218 57.461,306.371 139.371,440.566 233.559,382.828 718.242,518.039 1070.008,756.891 372.211,252.671 669.094,633.515 690.969,1096.234 17.906,379.031 -178.938,702.48 -353.946,1022.019 -62.183,113.622 -128.347,237.946 -128.738,370.661 -0.441,144.535 127.414,256.175 230.828,339.226 230.524,185.25 527.141,238.977 800.27,331.41 318.437,107.692 555.742,303.164 705.195,607.176 0.024,0.02 0.594,-0.242 0.59,-0.219"
                     style="fill:#dedfe2;fill-opacity:1;fill-rule:nonzero;stroke:none"
                     id="path72"
                     inkscape:connector-curvature="0" /><path
                     d="M 2344.875,4522.156 C 2266.996,4356.488 2162.152,4209.855 2016.648,4097.207 1897.039,4004.625 1755.43,3945.938 1613.461,3897.129 1319.926,3796.242 1022.301,3723.879 797,3495.086 693.875,3390.348 642.355,3284.082 679.453,3137.508 717.762,2986.191 814.812,2848.695 892.285,2715.453 1099.398,2359.406 1234.871,1978.945 1110.184,1568.336 984.238,1153.664 628.051,851.09 263.52,645.273 -53.289,466.387 -423.484,294.348 -580.645,-57.199 c -59.39,-132.848 -77.671,-280.832 -88.003,-424.543 -13.293,-184.875 9.503,-378.438 -70.477,-551.141 -66.039,-142.472 -206.227,-226.894 -341.5,-293.449 -198.879,-97.832 -406.719,-174.379 -602.953,-278.25 -0.106,-0.09 -0.438,0.273 -0.57,0.195 202.793,107.356 417.582,187.086 623.148,288.207 152.699,75.106 283.906,175.785 344.609,339.7 66.368,179.171 35.805,390.761 54.203,578.628 14.958,152.457 51.071,301.305 129.063,434.25 222.383,379.282 695.16,520.122 1035.887,760.297 360.519,254.067 644.996,632.473 658.5,1086.426 11.05,371.848 -187.453,685.543 -364.477,995.754 -62.918,110.309 -129.894,231.047 -132.555,361.129 -2.91,141.676 120.493,253.297 220.446,336.488 222.789,185.535 512.617,243.297 778.777,338.59 310.297,111.027 539.555,306.711 680.836,607.277 0.031,0.024 0.582,-0.23 0.586,-0.203"
                     style="fill:#dedfe2;fill-opacity:1;fill-rule:nonzero;stroke:none"
                     id="path74"
                     inkscape:connector-curvature="0" /><path
                     d="M 2151.91,4472.855 C 2078.418,4309.129 1978.164,4163.602 1837.461,4050.676 1721.805,3957.875 1583.996,3897.914 1445.672,3847.637 1159.676,3743.699 869.168,3667.66 652.238,3439.52 552.953,3335.086 504.281,3230.035 543.152,3087.004 583.301,2939.328 680.797,2806.219 759.023,2676.934 968.148,2331.477 1107.48,1960.859 992.297,1556.223 875.953,1147.578 531.992,844.871 178.191,636.867 -129.285,456.078 -489.215,281.09 -637.242,-66.207 c -55.938,-131.242 -71.317,-276.613 -78.977,-417.664 -9.867,-181.457 15.809,-370.797 -59.629,-541.465 -62.293,-140.789 -198.261,-225.945 -329.718,-293.508 -193.278,-99.304 -395.696,-177.91 -586.27,-283.094 -0.102,-0.089 -0.434,0.258 -0.559,0.184 196.946,108.707 406.118,190.551 605.887,293.203 148.399,76.239 275.285,177.176 331.981,338.903 61.976,176.765 28.386,383.652 43.203,568.121 12.047,149.703 44.89,296.226 119.054,427.879 211.485,375.601 672.508,521.777 1002.375,763.05 349.04,255.227 621.407,631.043 626.856,1076.254 4.453,364.703 -195.508,668.778 -374.359,969.832 -63.555,107.047 -131.293,224.25 -136.129,351.715 -5.289,138.828 113.765,250.356 210.32,333.629 215.199,185.691 498.312,247.273 757.574,345.258 302.266,114.156 523.641,309.902 656.973,606.961 0.023,0.019 0.574,-0.219 0.57,-0.196"
                     style="fill:#dedfe2;fill-opacity:1;fill-rule:nonzero;stroke:none"
                     id="path76"
                     inkscape:connector-curvature="0" /><path
                     d="m 1963.609,4421.227 c -69.238,-161.75 -165.015,-306.125 -300.992,-419.231 -111.785,-92.957 -245.832,-154.094 -380.566,-205.762 C 1003.484,3689.457 720.023,3609.926 511.297,3382.574 415.758,3278.504 369.855,3174.691 410.406,3035.148 452.297,2891.09 550.145,2762.273 629.059,2636.887 839.969,2301.848 982.906,1940.938 876.945,1542.32 769.91,1139.758 437.938,837.129 94.695,627.164 -203.605,444.672 -553.426,266.965 -692.562,-76.008 c -52.586,-129.613 -65.161,-272.371 -70.258,-410.769 -6.547,-178.032 21.863,-363.196 -49.157,-531.789 -58.644,-139.071 -190.468,-224.879 -318.171,-293.36 -187.747,-100.672 -384.825,-181.183 -569.829,-287.562 -0.097,-0.09 -0.429,0.242 -0.55,0.168 191.187,109.949 394.828,193.758 588.89,297.804 144.149,77.286 266.805,178.399 319.602,337.907 57.715,174.332 21.25,376.558 32.605,557.636 9.239,146.95 38.918,291.145 109.36,421.465 200.863,371.813 650.273,523.012 969.484,765.176 337.758,256.172 598.305,629.234 596,1065.742 -1.887,357.567 -203.117,652.215 -383.598,944.246 C 467.68,2894.5 399.27,3008.223 392.34,3133.09 c -7.567,135.996 107.23,247.363 200.437,330.64 207.766,185.723 484.227,250.938 736.696,351.43 294.324,117.094 507.965,312.774 633.57,606.242 0.023,0.016 0.57,-0.199 0.566,-0.175"
                     style="fill:#dedfe2;fill-opacity:1;fill-rule:nonzero;stroke:none"
                     id="path78"
                     inkscape:connector-curvature="0" /><path
                     d="M 1779.918,4367.383 C 1714.824,4207.637 1623.41,4064.469 1492.062,3951.262 1384.074,3858.23 1253.727,3795.996 1122.543,3743.047 851.312,3633.594 574.812,3550.781 374.113,3324.34 282.25,3220.688 239.027,3118.137 281.18,2982.047 324.711,2841.547 422.832,2716.961 502.34,2595.398 714.836,2270.598 861.137,1919.277 764.105,1526.719 666.094,1130.27 345.875,827.926 13.02,616.223 -276.258,432.219 -616.113,252.023 -746.625,-86.566 c -49.32,-127.95 -59.203,-268.11 -61.824,-403.86 -3.36,-174.625 27.66,-355.644 -39.067,-522.121 -55.097,-137.332 -182.839,-223.707 -306.839,-293.027 -182.313,-101.899 -374.118,-184.203 -553.641,-291.653 -0.094,-0.089 -0.426,0.231 -0.543,0.157 185.523,111.05 383.703,196.699 572.148,302.019 139.973,78.227 258.469,179.457 307.485,336.715 53.59,171.879 14.371,369.484 22.402,547.184 6.531,144.203 33.152,286.054 99.969,415.015 190.512,367.907 628.445,523.828 937.191,766.68 326.703,256.91 575.692,627.074 565.949,1054.922 -7.988,350.457 -210.3,635.832 -392.222,919.004 -64.653,100.691 -133.66,210.996 -142.598,333.273 -9.742,133.172 100.867,244.317 190.805,327.547 200.476,185.613 470.367,254.289 716.109,357.125 286.496,119.828 492.571,315.301 610.649,605.133 0.035,0.023 0.566,-0.192 0.57,-0.164"
                     style="fill:#dedfe2;fill-opacity:1;fill-rule:nonzero;stroke:none"
                     id="path80"
                     inkscape:connector-curvature="0" /><path
                     d="M 1600.773,4311.457 C 1539.699,4153.746 1452.559,4011.844 1325.738,3898.617 1221.492,3805.57 1094.785,3742.332 967.098,3688.172 703.109,3576.234 433.492,3490.312 240.648,3264.898 152.375,3161.715 111.762,3060.449 155.418,2927.777 200.492,2790.797 298.82,2670.355 378.832,2552.562 592.707,2237.828 742.145,1895.949 653.77,1509.484 564.492,1119.188 255.785,817.324 -66.859,604.094 -347.266,418.762 -677.32,236.293 -799.438,-97.84 c -46.148,-126.269 -53.429,-263.824 -53.667,-396.933 -0.305,-171.243 33.21,-348.153 -29.348,-512.485 -51.637,-135.57 -175.379,-222.426 -295.75,-292.496 -176.965,-103.012 -363.559,-186.988 -537.695,-295.394 -0.09,-0.09 -0.418,0.222 -0.532,0.144 179.953,112.039 372.75,199.391 555.657,305.875 135.863,79.078 250.289,180.34 295.64,335.332 49.578,169.399 7.746,362.43 12.567,536.754 3.929,141.465 27.593,280.977 90.871,408.527 180.437,363.907 607.043,524.262 905.523,767.614 315.844,257.441 553.559,624.558 536.676,1043.781 -13.848,343.406 -217.051,619.672 -400.238,894.121 -65.106,97.598 -134.645,204.535 -145.5,324.246 -11.836,130.379 94.679,241.227 181.414,324.352 193.332,185.375 456.703,257.34 695.832,362.351 278.789,122.375 477.426,317.52 588.203,603.653 0.027,0.019 0.562,-0.168 0.558,-0.145"
                     style="fill:#dedfe2;fill-opacity:1;fill-rule:nonzero;stroke:none"
                     id="path82"
                     inkscape:connector-curvature="0" /><path
                     d="M 1426.129,4253.559 C 1368.965,4097.914 1285.98,3957.312 1163.613,3844.152 1063.023,3751.156 939.898,3686.992 815.66,3631.723 558.805,3517.457 296,3428.605 110.828,3204.344 26.07,3101.688 -11.996,3001.723 33.066,2872.418 79.605,2738.926 178.062,2622.547 258.512,2508.449 473.555,2203.602 625.906,1871.055 545.906,1490.699 465.094,1106.586 167.664,805.391 -144.949,590.836 -416.641,404.352 -737.039,219.828 -851.016,-109.801 c -43.066,-124.562 -47.843,-259.527 -45.793,-390.011 2.637,-167.86 38.524,-340.704 -19.972,-502.86 -48.301,-133.773 -168.106,-221.039 -284.895,-291.793 -171.699,-104.012 -353.168,-189.531 -522,-298.781 -0.09,-0.09 -0.418,0.211 -0.527,0.133 174.476,112.914 361.961,201.851 539.437,309.355 131.821,79.86 242.243,181.082 284.039,333.785 45.696,166.911 1.372,355.399 3.11,526.364 1.426,138.738 22.23,275.898 82.07,402.019 170.629,359.813 586.059,524.317 874.465,767.981 305.18,257.773 531.902,621.714 508.16,1032.367 -19.461,336.383 -223.394,603.707 -407.68,869.59 -65.484,94.543 -135.484,198.187 -148.175,315.34 -13.844,127.597 88.668,238.078 172.269,321.054 186.324,185.039 443.258,260.086 675.86,367.129 271.179,124.746 462.546,319.438 566.234,601.817 0.023,0.015 0.539,-0.161 0.543,-0.129"
                     style="fill:#dedfe2;fill-opacity:1;fill-rule:nonzero;stroke:none"
                     id="path84"
                     inkscape:connector-curvature="0" /><path
                     d="M 1255.926,4193.805 C 1202.574,4040.258 1123.629,3901.008 1005.621,3787.992 908.613,3695.113 789.027,3630.102 668.199,3573.785 418.371,3457.375 162.277,3365.766 -15.383,3142.754 -96.707,3040.672 -132.309,2942.035 -85.914,2816.051 -38.004,2685.988 60.496,2573.613 141.32,2463.148 357.344,2168.016 512.395,1844.641 440.5,1470.434 367.871,1092.523 81.484,792.176 -221.273,576.496 c -263.118,-187.457 -574.02,-373.828 -680.09,-698.902 -40.082,-122.844 -42.449,-255.219 -38.203,-383.094 5.464,-164.496 43.609,-333.309 -10.95,-493.266 -45.05,-131.957 -160.992,-219.558 -274.257,-290.918 -166.52,-104.906 -342.942,-191.839 -506.563,-301.828 -0.082,-0.093 -0.41,0.196 -0.519,0.117 169.093,113.676 351.347,204.075 523.468,312.504 127.852,80.528 234.36,181.653 272.703,332.059 41.93,164.394 -4.75,348.402 -5.98,516.016 -0.988,136.019 17.055,270.828 73.555,395.488 161.078,355.625 565.48,524.012 844.011,767.808 294.723,257.911 510.731,618.559 480.407,1020.688 -24.848,329.406 -229.34,587.941 -414.539,845.41 -65.813,91.559 -136.208,191.949 -150.665,306.567 -15.757,124.847 82.833,234.898 163.36,317.664 179.469,184.582 430.039,262.554 656.211,371.48 263.683,126.926 447.929,321.059 544.719,599.641 0.023,0.019 0.535,-0.149 0.531,-0.125"
                     style="fill:#dedfe2;fill-opacity:1;fill-rule:nonzero;stroke:none"
                     id="path86"
                     inkscape:connector-curvature="0" /><path
                     d="M 1090.113,4132.309 C 1040.441,3980.887 965.453,3843.039 851.715,3730.223 758.223,3637.508 642.113,3571.734 524.633,3514.457 281.746,3396.062 32.277,3301.875 -138.047,3080.215 -216.004,2978.758 -249.219,2881.453 -201.582,2758.77 -152.383,2632.098 -53.898,2523.625 27.219,2416.73 244.043,2131.129 401.574,1816.812 337.523,1448.766 272.809,1077.07 -2.766,777.746 -295.848,561.129 -550.543,372.867 -852.105,184.844 -950.504,-135.629 c -37.18,-121.101 -37.234,-250.906 -30.875,-376.18 8.176,-161.156 48.473,-325.972 -2.269,-483.707 -41.899,-130.129 -154.047,-217.984 -263.844,-289.879 -161.438,-105.683 -332.879,-193.929 -491.379,-304.554 -0.082,-0.086 -0.41,0.187 -0.512,0.109 163.801,114.332 340.906,206.067 507.762,315.309 123.949,81.133 226.605,182.082 261.617,330.179 38.285,161.864 -10.629,341.434 -14.715,505.719 -3.297,133.313 12.071,265.766 65.321,388.934 151.793,351.363 545.312,523.355 814.16,767.117 284.476,257.871 490.027,615.098 453.406,1008.758 -30.012,322.476 -234.895,572.39 -420.856,821.594 -66.085,88.625 -136.808,185.828 -152.945,297.929 -17.594,122.11 77.176,231.68 154.68,314.199 172.762,184.012 417.039,264.739 636.875,375.387 256.289,128.938 433.566,322.403 523.672,597.137 0.015,0.027 0.523,-0.133 0.519,-0.113"
                     style="fill:#dedfe2;fill-opacity:1;fill-rule:nonzero;stroke:none"
                     id="path88"
                     inkscape:connector-curvature="0" /><path
                     d="M 928.633,4069.184 C 882.543,3919.902 811.402,3783.492 701.852,3670.957 611.781,3578.473 499.094,3512.008 384.93,3453.844 148.867,3333.629 -94.055,3237.012 -257.211,3016.816 -331.895,2916.02 -362.781,2820.074 -313.973,2700.621 -263.578,2577.297 -165.176,2472.652 -83.82,2369.27 133.613,2093.039 293.422,1787.629 236.949,1425.758 179.891,1060.293 -85.105,762.156 -368.672,544.793 -615.113,355.879 -907.492,166.395 -998.449,-149.438 c -34.371,-119.343 -32.196,-246.585 -23.809,-369.273 10.785,-157.828 53.102,-318.699 6.074,-474.187 -38.839,-128.274 -147.265,-216.317 -253.66,-288.672 -156.433,-106.371 -322.972,-195.817 -476.445,-306.973 -0.078,-0.09 -0.402,0.176 -0.5,0.102 158.601,114.879 330.633,207.839 492.32,317.789 120.106,81.66 219.004,182.371 250.785,328.14 34.75,159.324 -16.277,334.508 -23.101,495.473 -5.524,130.625 7.269,260.723 57.351,382.371 142.778,347.027 525.567,522.371 784.914,765.926 274.434,257.66 469.797,611.347 427.141,996.609 -34.953,315.586 -240.066,557.059 -426.625,798.145 -66.312,85.734 -137.301,179.793 -155.043,289.418 -19.332,119.386 71.672,228.422 146.238,310.632 166.188,183.34 404.254,266.672 617.848,378.907 249.016,130.797 419.469,323.476 503.074,594.328 0.024,0.015 0.52,-0.125 0.52,-0.113"
                     style="fill:#dedfe2;fill-opacity:1;fill-rule:nonzero;stroke:none"
                     id="path90"
                     inkscape:connector-curvature="0" /><path
                     d="M 771.43,4004.543 C 728.805,3857.422 661.414,3722.484 555.953,3610.289 469.254,3518.086 359.934,3451 249.016,3392.031 19.684,3270.133 -216.785,3171.266 -372.938,2952.613 c -71.472,-100.074 -100.093,-194.66 -50.214,-310.918 51.519,-120.011 149.765,-220.906 231.289,-320.843 C 26.016,2053.793 187.91,1757.16 138.758,1401.469 89.098,1042.254 -165.547,745.461 -439.785,527.527 c -238.324,-189.406 -521.68,-380.168 -605.418,-691.312 -31.645,-117.582 -27.332,-242.274 -17.008,-362.391 13.277,-154.527 57.523,-311.492 14.094,-464.715 -35.879,-126.406 -140.649,-214.57 -243.699,-287.32 -151.516,-106.953 -313.231,-197.488 -461.766,-309.082 -0.074,-0.086 -0.395,0.168 -0.492,0.09 153.496,115.332 320.535,209.41 477.144,319.957 116.328,82.105 211.543,182.523 240.2,325.961 31.328,156.773 -21.696,327.621 -31.149,485.285 -7.648,127.957 2.66,255.703 49.656,375.797 134,342.621 506.227,521.074 756.278,764.269 264.586,257.278 450.011,607.332 401.593,984.243 -39.671,308.75 -244.886,541.925 -431.894,775.054 -66.461,82.903 -137.668,173.895 -156.93,281.039 -21.008,116.692 66.332,225.141 138.012,307.008 159.758,182.563 391.691,268.332 599.137,382.016 241.851,132.48 405.636,324.281 482.949,591.211 0.016,0.027 0.504,-0.11 0.508,-0.094"
                     style="fill:#dedfe2;fill-opacity:1;fill-rule:nonzero;stroke:none"
                     id="path92"
                     inkscape:connector-curvature="0" /><path
                     d="M 618.434,3938.484 C 579.184,3793.531 515.43,3660.109 413.98,3548.324 330.574,3456.453 224.566,3388.82 116.852,3329.105 c -222.711,-123.421 -452.805,-224.394 -602.118,-441.394 -68.351,-99.332 -94.793,-192.535 -43.898,-305.645 52.566,-116.761 150.602,-213.972 232.226,-310.543 C -78.781,2013.484 85.004,1725.492 42.926,1375.988 0.41,1023.016 -244.109,727.719 -509.191,509.387 c -230.371,-189.758 -504.856,-381.61 -581.602,-688.047 -28.996,-115.797 -22.633,-237.949 -10.453,-355.52 15.668,-151.242 61.734,-304.347 21.785,-455.293 -32.992,-124.519 -134.184,-212.738 -233.953,-285.824 -146.688,-107.437 -303.652,-198.957 -447.336,-310.894 -0.074,-0.086 -0.391,0.156 -0.484,0.078 148.484,115.687 310.605,210.769 462.226,321.82 112.621,82.481 204.235,182.551 229.863,323.641 28.012,154.207 -26.894,320.773 -38.859,475.164 -9.695,125.297 -1.777,250.695 42.231,369.226 125.472,338.153 487.273,519.457 728.214,762.141 254.946,256.726 430.711,603.051 376.782,971.683 -44.184,301.969 -249.34,527.02 -436.661,752.333 -66.574,80.128 -137.933,168.097 -158.652,272.793 -22.594,114.039 61.152,221.832 130.02,303.308 153.472,181.707 379.351,269.758 580.742,384.758 234.801,134.004 392.058,324.82 463.258,587.805 0.019,0.027 0.508,-0.098 0.504,-0.075"
                     style="fill:#dedfe2;fill-opacity:1;fill-rule:nonzero;stroke:none"
                     id="path94"
                     inkscape:connector-curvature="0" /><path
                     d="M 469.598,3871.102 C 433.609,3728.344 373.402,3596.453 275.879,3485.141 195.695,3393.648 92.941,3325.535 -11.613,3265.16 c -216.199,-124.805 -440.012,-227.73 -582.66,-443.012 -65.289,-98.535 -89.61,-190.359 -37.778,-300.347 53.52,-113.559 151.293,-207.16 232.957,-300.434 218.274,-249.199 383.762,-528.683 348.516,-872.008 -35.621,-346.726 -270.25,-640.39 -526.344,-858.949 -222.558,-189.961 -488.328,-382.73 -558.301,-684.426 -26.441,-114.007 -18.101,-233.64 -4.144,-348.675 17.945,-147.993 65.726,-297.286 29.16,-445.926 -30.203,-122.629 -127.883,-210.84 -224.426,-284.192 -141.945,-107.832 -294.242,-200.234 -433.168,-312.425 -0.07,-0.086 -0.383,0.144 -0.476,0.066 143.566,115.949 300.859,211.938 447.574,323.391 108.984,82.785 197.07,182.453 219.765,321.191 24.821,151.645 -31.855,313.977 -46.234,465.113 -11.652,122.653 -6.055,245.707 35.059,362.653 117.195,333.625 468.734,517.55 700.754,759.574 245.504,256.031 411.851,598.519 352.664,958.957 -48.496,295.234 -253.461,512.32 -440.942,729.969 -66.629,77.402 -138.086,162.406 -160.199,264.679 -24.102,111.391 56.145,218.508 122.246,299.547 147.324,180.75 367.235,270.938 562.68,387.114 227.855,135.394 378.73,325.136 444.015,584.152 0.02,0.012 0.497,-0.094 0.493,-0.07"
                     style="fill:#dedfe2;fill-opacity:1;fill-rule:nonzero;stroke:none"
                     id="path96"
                     inkscape:connector-curvature="0" /><path
                     d="M 324.855,3802.492 C 292.027,3661.938 235.281,3531.633 141.586,3420.84 64.559,3329.781 -34.992,3261.25 -136.453,3200.273 -346.234,3074.219 -563.863,2969.492 -700,2756.02 c -62.312,-97.711 -84.57,-188.137 -31.879,-295.063 54.418,-110.398 151.859,-200.477 233.512,-290.504 218.238,-240.515 385.25,-511.656 356.586,-848.805 -28.965,-340.476 -253.914,-632.363 -501.207,-851.003 -214.903,-190.024 -472.114,-383.547 -535.524,-680.481 -23.965,-112.207 -13.738,-229.332 1.914,-341.859 20.137,-144.754 69.532,-290.278 36.239,-436.614 -27.508,-120.726 -121.739,-208.867 -215.118,-282.425 -137.289,-108.137 -284.992,-201.328 -419.246,-313.684 -0.066,-0.09 -0.379,0.137 -0.468,0.059 138.742,116.121 291.277,212.91 433.179,324.679 105.41,83.02 190.043,182.223 209.918,318.618 21.727,149.074 -36.621,307.222 -53.304,455.128 -13.536,120.02 -10.145,240.75 28.14,356.082 109.16,329.047 450.602,515.379 673.879,756.594 236.258,255.184 393.445,593.762 329.242,946.055 -52.597,288.574 -257.238,497.855 -444.746,707.984 -66.64,74.727 -138.148,156.836 -161.578,256.707 -25.531,108.778 51.285,215.145 114.695,295.723 141.313,179.715 355.325,271.891 544.907,389.121 221.047,136.629 365.675,325.211 425.23,580.223 0.024,0.019 0.496,-0.078 0.484,-0.063"
                     style="fill:#dedfe2;fill-opacity:1;fill-rule:nonzero;stroke:none"
                     id="path98"
                     inkscape:connector-curvature="0" /><path
                     d="m 184.156,3732.758 c -29.773,-138.34 -83.164,-267.043 -173.101,-377.254 -73.942,-90.578 -170.356,-159.469 -268.766,-220.977 -203.469,-127.16 -415,-233.554 -544.785,-445.144 -59.406,-96.856 -79.68,-185.875 -26.192,-289.789 55.235,-107.278 152.301,-193.906 233.883,-280.746 218.047,-232.028 386.414,-494.934 364.102,-825.91 C -253.258,958.672 -468.75,668.703 -707.402,450.137 -914.809,260.176 -1163.613,66.07 -1220.68,-226.086 c -21.566,-110.406 -9.531,-225.039 7.742,-335.074 22.223,-141.547 73.145,-283.344 43.012,-427.363 -24.883,-118.809 -115.746,-206.829 -206.015,-280.536 -132.727,-108.355 -275.911,-202.238 -405.582,-314.675 -0.067,-0.09 -0.379,0.125 -0.461,0.046 134.007,116.204 281.867,213.7 419.05,325.696 101.903,83.187 183.168,181.887 200.301,315.922 18.746,146.504 -41.164,300.523 -60.058,445.222 -15.321,117.418 -14.075,235.817 21.484,349.539 101.352,324.411 432.852,512.918 647.582,753.2 227.215,254.199 375.48,588.773 306.504,933.015 -56.508,281.965 -260.699,483.602 -448.106,686.36 -66.605,72.109 -138.109,151.367 -162.789,248.867 -26.898,106.191 46.59,211.769 107.352,291.847 135.441,178.575 343.641,272.606 527.469,390.778 214.336,137.719 352.875,325.054 406.875,576.054 0.019,0.024 0.476,-0.07 0.476,-0.054"
                     style="fill:#dedfe2;fill-opacity:1;fill-rule:nonzero;stroke:none"
                     id="path100"
                     inkscape:connector-curvature="0" /><path
                     d="m 47.434,3661.992 c -26.817,-136.121 -76.938,-263.199 -163.219,-372.777 -70.93,-90.055 -164.25,-159.242 -259.66,-221.223 -197.27,-128.137 -402.797,-236.058 -526.379,-445.695 -56.578,-95.953 -74.922,-183.559 -20.707,-284.5 55.984,-104.211 152.621,-187.469 234.082,-271.188 217.715,-223.707 387.261,-478.539 371.07,-803.355 C -333.746,935.211 -540.012,647.27 -770.199,428.93 -970.242,239.168 -1210.805,44.625 -1261.73,-242.734 c -19.247,-108.598 -5.485,-220.762 13.339,-328.321 24.207,-138.375 76.555,-276.496 49.496,-418.179 -22.359,-116.891 -109.917,-204.735 -197.14,-278.532 -128.242,-108.492 -266.985,-202.976 -392.168,-315.418 -0.063,-0.086 -0.371,0.118 -0.453,0.039 129.367,116.207 272.633,214.313 405.183,326.45 98.465,83.289 176.422,181.429 190.926,313.117 15.859,143.926 -45.508,293.879 -66.512,435.394 -17.035,114.836 -17.839,230.918 15.063,343 93.781,319.739 415.5,510.207 621.863,749.426 218.363,253.074 357.969,583.598 284.442,919.836 -60.227,275.438 -263.836,469.582 -451.02,665.125 -66.539,69.535 -137.977,146 -163.848,241.145 -28.183,103.632 42.024,208.39 100.223,287.929 129.699,177.375 332.176,273.11 510.352,392.106 207.726,138.668 340.32,324.691 388.945,571.656 0.016,0.012 0.469,-0.062 0.473,-0.047"
                     style="fill:#dedfe2;fill-opacity:1;fill-rule:nonzero;stroke:none"
                     id="path102"
                     inkscape:connector-curvature="0" /></g></g></g></g></g></g><g
         id="g112"
         transform="translate(0,0.003)"><text
   transform="matrix(1,0,0,-1,115.604,223.572)"
   style="font-variant:normal;font-weight:bold;font-size:14.34619999px;font-family:'Nimbus Sans';-inkscape-font-specification:NimbusSanL-Bold;writing-mode:lr-tb;fill:#211a52;fill-opacity:1;fill-rule:nonzero;stroke:none"
   id="text118"><tspan
     x="0 10.357956 18.334444 26.31093 39.064701 49.422661 57.399147 61.38739 70.152916 74.64328 83.408806 88.702553 96.679039 104.65553 117.4093 125.38579 134.15132 142.91684 151.68237 159.65886 167.63535 173.21602 181.98155 185.96979 194.73532 207.48909 211.97945 220.74498"
     y="0"
     sodipodi:role="line"
     id="tspan114">DeepReinforcementLearningfor</tspan><tspan
     x="4.4910002 14.848956 23.614485 32.380013 41.145542 45.922825 49.911068 61.875801 73.03714 78.617813 86.594299 94.570793 103.33632 107.32456 116.09009 128.84386 133.62114 138.91489 147.68042 164.42244 175.58379 183.56027 188.33755 193.91823 201.89471 209.8712"
     y="14.654"
     sodipodi:role="line"
     id="tspan116">RoboticGraspingfromOctrees</tspan></text>

<text
   transform="matrix(1,0,0,-1,105.09,196.963)"
   style="font-variant:normal;font-size:9.96259975px;font-family:'Nimbus Sans';-inkscape-font-specification:NimbusSanL-Regu;writing-mode:lr-tb;fill:#211a52;fill-opacity:1;fill-rule:nonzero;stroke:none"
   id="text122"><tspan
     x="0 5.5392056 11.078411 16.617617 20.184227 25.723433 27.935131 33.474335 41.783146 50.081989 55.621197 61.1604 63.372097 68.911301 74.450508 76.662209 82.201416 84.971016 87.182716 92.721916 101.03072 103.80033 107.11787 112.65708 123.72553 130.91853 136.45773 144.75658 150.29578 155.83499 160.81628 166.3555 171.8947 181.8573 189.6082 195.14742 200.12871 205.66791 209.28433 214.01657 219.55579 222.32538 224.53708 230.07628 235.61549"
     y="0"
     sodipodi:role="line"
     id="tspan120">LearningManipulationfromCompact3DObservations</tspan></text>

<text
   transform="matrix(1,0,0,-1,192.002,182.019)"
   style="font-variant:normal;font-size:9.96259975px;font-family:'Nimbus Sans';-inkscape-font-specification:NimbusSanL-ReguItal;writing-mode:lr-tb;fill:#211a52;fill-opacity:1;fill-rule:nonzero;stroke:none"
   id="text126"><tspan
     x="0 8.2988462 13.838052 18.819351 21.588955 27.12816 30.445705 32.159271 39.910175 45.997326 51.53653 57.075737 62.057034 64.26873"
     y="0"
     sodipodi:role="line"
     id="tspan124">MastersThesis</tspan></text>

<g
   id="g128"
   transform="translate(28.346,86.058)"><path
     d="M 0,0 H 396.85 V 82.895 H 0 Z"
     style="fill:#211a52;fill-opacity:1;fill-rule:nonzero;stroke:none"
     id="path130"
     inkscape:connector-curvature="0" /></g><text
   transform="matrix(1,0,0,-1,195.3,149.899)"
   style="font-variant:normal;font-size:9.96259975px;font-family:'Nimbus Sans';-inkscape-font-specification:NimbusSanL-Regu;writing-mode:lr-tb;fill:#ffffff;fill-opacity:1;fill-rule:nonzero;stroke:none"
   id="text136"><tspan
     x="0 4.7820482 10.321254 15.860459 24.169268 29.708473 35.247681 40.786884 46.326092 51.865295 57.404503"
     y="0"
     sodipodi:role="line"
     id="tspan132">June25,2021</tspan><tspan
     x="-0.36399999 6.281054 11.82026 17.359465 20.677011 26.216217 31.197517 38.948421 42.265965 47.247265 52.786472 54.998169"
     y="23.91"
     sodipodi:role="line"
     id="tspan134">AndrejOrsula</tspan></text>

<text
   transform="matrix(1,0,0,-1,198.57,106.064)"
   style="font-variant:normal;font-size:6.97380018px;font-family:'Nimbus Sans';-inkscape-font-specification:NimbusSanL-Regu;writing-mode:lr-tb;fill:#ffffff;fill-opacity:1;fill-rule:nonzero;stroke:none"
   id="text142"><tspan
     x="0 4.6515245 8.5289574 10.077141 13.954574 17.832006 20.154282 25.97043 31.005514 34.882946 36.431129 39.743687 43.62112 45.943394 49.430294 50.978477 52.917194"
     y="0"
     sodipodi:role="line"
     id="tspan138">AalborgUniversity</tspan><tspan
     x="14.007 19.042084 22.919516 26.796949 32.606125 36.483559 38.910439"
     y="7.9699998"
     sodipodi:role="line"
     id="tspan140">Denmark</tspan></text>

<g
   id="g144"
   transform="translate(171.705,19.426)"><g
     id="g146"
     transform="scale(0.7575)"><g
       id="g148"><g
         id="g150" /><g
         id="g202"><g
           clip-path="url(#clipPath154)"
           id="g200"><g
             transform="matrix(1,0,0,-1,0,70.865089)"
             id="g198"><g
               id="g196"><path
                 d="M 4.137,67.996 3.473,65.766 H 3.441 L 2.75,67.996 Z M 2.477,63.695 C 2.496,63.629 2.539,63.59 2.613,63.59 h 1.711 c 0.074,0 0.117,0.043 0.141,0.105 l 2.418,6.938 c 0.019,0.062 -0.012,0.105 -0.074,0.105 H 5.074 C 5,70.738 4.957,70.695 4.938,70.633 L 4.602,69.531 H 2.277 L 1.941,70.633 C 1.918,70.695 1.879,70.738 1.805,70.738 H 0.082 c -0.066,0 -0.098,-0.043 -0.074,-0.105 l 2.469,-6.938"
                 style="fill:#211a52;fill-opacity:1;fill-rule:nonzero;stroke:none"
                 id="path156"
                 inkscape:connector-curvature="0" /><path
                 d="m 13.328,67.996 -0.664,-2.23 h -0.031 l -0.692,2.23 z m -1.66,-4.301 c 0.02,-0.066 0.062,-0.105 0.137,-0.105 h 1.711 c 0.074,0 0.117,0.043 0.14,0.105 l 2.418,6.938 c 0.02,0.062 -0.012,0.105 -0.074,0.105 h -1.734 c -0.075,0 -0.118,-0.043 -0.137,-0.105 l -0.336,-1.102 h -2.324 l -0.34,1.102 c -0.02,0.062 -0.063,0.105 -0.133,0.105 H 9.27 c -0.063,0 -0.094,-0.043 -0.075,-0.105 l 2.473,-6.938"
                 style="fill:#211a52;fill-opacity:1;fill-rule:nonzero;stroke:none"
                 id="path158"
                 inkscape:connector-curvature="0" /><path
                 d="m 18.859,63.695 c 0,-0.066 0.043,-0.105 0.106,-0.105 h 1.64 c 0.063,0 0.106,0.043 0.106,0.105 v 5.34 c 0,0.043 0.019,0.063 0.062,0.063 h 3.028 c 0.062,0 0.105,0.043 0.105,0.105 v 1.43 c 0,0.062 -0.043,0.105 -0.105,0.105 h -4.836 c -0.063,0 -0.106,-0.043 -0.106,-0.105 v -6.938"
                 style="fill:#211a52;fill-opacity:1;fill-rule:nonzero;stroke:none"
                 id="path160"
                 inkscape:connector-curvature="0" /><path
                 d="m 28.699,69.34 h 0.844 c 0.578,0 0.871,-0.281 0.871,-0.809 0,-0.492 -0.293,-0.797 -0.871,-0.797 h -0.844 c -0.039,0 -0.062,0.02 -0.062,0.063 v 1.48 c 0,0.043 0.023,0.067 0.062,0.067 z m 0.75,-2.879 c 0.555,0 0.852,-0.242 0.852,-0.738 0,-0.504 -0.285,-0.735 -0.852,-0.735 h -0.75 c -0.039,0 -0.062,0.02 -0.062,0.063 v 1.344 c 0,0.043 0.023,0.066 0.062,0.066 z m -2.664,-2.766 c 0,-0.066 0.043,-0.105 0.106,-0.105 h 2.914 c 1.597,0 2.336,0.765 2.336,1.902 0,0.735 -0.34,1.25 -0.875,1.535 v 0.02 c 0.527,0.199 1,0.801 1,1.633 0,1.394 -0.989,2.058 -2.493,2.058 h -2.882 c -0.063,0 -0.106,-0.043 -0.106,-0.105 v -6.938"
                 style="fill:#211a52;fill-opacity:1;fill-rule:nonzero;stroke:none"
                 id="path162"
                 inkscape:connector-curvature="0" /><path
                 d="m 38.984,68.582 c 0.086,-0.242 0.106,-0.566 0.106,-1.418 0,-0.852 -0.02,-1.18 -0.106,-1.418 -0.125,-0.402 -0.453,-0.633 -0.914,-0.633 -0.461,0 -0.789,0.231 -0.914,0.633 -0.086,0.238 -0.105,0.566 -0.105,1.418 0,0.852 0.019,1.176 0.105,1.418 0.125,0.402 0.453,0.633 0.914,0.633 0.461,0 0.789,-0.231 0.914,-0.633 z m -3.593,0.527 c -0.172,-0.547 -0.211,-0.968 -0.211,-1.945 0,-0.976 0.039,-1.398 0.211,-1.945 0.375,-1.168 1.418,-1.758 2.679,-1.758 1.262,0 2.301,0.59 2.68,1.758 0.18,0.547 0.211,0.969 0.211,1.945 0,0.977 -0.031,1.398 -0.211,1.945 -0.375,1.168 -1.418,1.754 -2.68,1.754 -1.261,0 -2.3,-0.586 -2.679,-1.754"
                 style="fill:#211a52;fill-opacity:1;fill-rule:nonzero;stroke:none"
                 id="path164"
                 inkscape:connector-curvature="0" /><path
                 d="m 47.797,65.914 c 0,-0.465 -0.317,-0.762 -0.84,-0.762 h -0.988 c -0.043,0 -0.063,0.024 -0.063,0.067 v 1.386 c 0,0.043 0.02,0.063 0.063,0.063 h 0.988 c 0.523,0 0.84,-0.293 0.84,-0.758 z m 0.098,4.824 c -0.098,0 -0.129,-0.031 -0.161,-0.105 l -1.082,-2.438 h -0.683 c -0.043,0 -0.063,0.02 -0.063,0.063 v 2.379 c 0,0.062 -0.043,0.105 -0.105,0.105 H 44.16 c -0.066,0 -0.105,-0.043 -0.105,-0.105 v -6.942 c 0,-0.062 0.039,-0.105 0.105,-0.105 h 2.91 c 1.641,0 2.578,0.957 2.578,2.305 0,0.89 -0.421,1.617 -1.179,1.996 l 1.316,2.722 c 0.031,0.063 0,0.129 -0.074,0.129 h -1.82"
                 style="fill:#211a52;fill-opacity:1;fill-rule:nonzero;stroke:none"
                 id="path166"
                 inkscape:connector-curvature="0" /><path
                 d="m 52.551,67.164 c 0,-0.976 0.043,-1.398 0.211,-1.945 0.379,-1.168 1.422,-1.758 2.691,-1.758 1.317,0 2.199,0.609 2.598,1.523 0.031,0.075 0.011,0.137 -0.055,0.168 l -1.367,0.582 c -0.063,0.032 -0.125,0.008 -0.156,-0.043 -0.243,-0.39 -0.528,-0.578 -1.02,-0.578 -0.484,0 -0.801,0.231 -0.926,0.633 -0.086,0.25 -0.105,0.566 -0.105,1.418 0,0.852 0.031,1.176 0.105,1.418 0.137,0.402 0.465,0.633 0.981,0.633 0.461,0 0.828,-0.199 0.945,-0.567 0.043,-0.128 0.063,-0.273 0.063,-0.464 0,-0.043 -0.02,-0.063 -0.063,-0.063 h -0.777 c -0.067,0 -0.106,-0.043 -0.106,-0.105 v -1.188 c 0,-0.062 0.039,-0.105 0.106,-0.105 h 2.554 c 0.063,0 0.102,0.043 0.102,0.105 v 0.547 c 0,0.684 -0.039,1.219 -0.187,1.66 -0.379,1.188 -1.387,1.828 -2.692,1.828 -1.273,0 -2.312,-0.586 -2.691,-1.754 -0.168,-0.547 -0.211,-0.968 -0.211,-1.945"
                 style="fill:#211a52;fill-opacity:1;fill-rule:nonzero;stroke:none"
                 id="path168"
                 inkscape:connector-curvature="0" /><path
                 d="m 66.012,67.973 v -4.278 c 0,-0.066 0.043,-0.105 0.105,-0.105 h 1.641 c 0.062,0 0.105,0.039 0.105,0.105 v 4.391 c 0,0.719 0.399,1.125 0.996,1.125 0.621,0 0.989,-0.41 0.989,-1.125 v -4.391 c 0,-0.066 0.043,-0.105 0.105,-0.105 h 1.641 c 0.062,0 0.105,0.039 0.105,0.105 v 4.278 c 0,1.902 -1.137,2.89 -2.84,2.89 -1.734,0 -2.847,-0.988 -2.847,-2.89"
                 style="fill:#211a52;fill-opacity:1;fill-rule:nonzero;stroke:none"
                 id="path170"
                 inkscape:connector-curvature="0" /><path
                 d="m 74.938,63.695 c 0,-0.066 0.042,-0.105 0.105,-0.105 h 1.547 c 0.074,0 0.148,0.031 0.18,0.105 l 2.156,4.047 h 0.043 v -4.047 c 0,-0.066 0.039,-0.105 0.105,-0.105 h 1.469 c 0.066,0 0.105,0.043 0.105,0.105 v 6.938 c 0,0.062 -0.039,0.105 -0.105,0.105 H 79 c -0.074,0 -0.148,-0.031 -0.18,-0.105 l -2.136,-4.035 h -0.063 v 4.035 c 0,0.062 -0.043,0.105 -0.105,0.105 h -1.473 c -0.063,0 -0.105,-0.043 -0.105,-0.105 v -6.938"
                 style="fill:#211a52;fill-opacity:1;fill-rule:nonzero;stroke:none"
                 id="path172"
                 inkscape:connector-curvature="0" /><path
                 d="m 83.91,63.695 c 0,-0.066 0.039,-0.105 0.102,-0.105 h 1.64 c 0.067,0 0.106,0.043 0.106,0.105 v 6.938 c 0,0.062 -0.039,0.105 -0.106,0.105 h -1.64 c -0.059,0 -0.102,-0.043 -0.102,-0.105 v -6.938"
                 style="fill:#211a52;fill-opacity:1;fill-rule:nonzero;stroke:none"
                 id="path174"
                 inkscape:connector-curvature="0" /><path
                 d="m 90.953,70.738 c -0.074,0 -0.113,-0.031 -0.137,-0.105 l -2.281,-6.93 c -0.019,-0.062 0.02,-0.113 0.094,-0.113 h 1.726 c 0.071,0 0.114,0.031 0.137,0.105 l 1.27,4.309 h 0.035 l 1.226,-4.309 c 0.024,-0.074 0.067,-0.105 0.141,-0.105 h 1.715 c 0.07,0 0.101,0.055 0.082,0.113 l -2.281,6.93 c -0.024,0.074 -0.063,0.105 -0.137,0.105 h -1.59"
                 style="fill:#211a52;fill-opacity:1;fill-rule:nonzero;stroke:none"
                 id="path176"
                 inkscape:connector-curvature="0" /><path
                 d="m 97.738,63.695 c 0,-0.066 0.043,-0.105 0.106,-0.105 h 4.679 c 0.063,0 0.102,0.043 0.102,0.105 v 1.356 c 0,0.062 -0.039,0.105 -0.102,0.105 h -2.871 c -0.043,0 -0.062,0.02 -0.062,0.063 v 1.082 c 0,0.043 0.019,0.066 0.062,0.066 h 2.356 c 0.062,0 0.105,0.039 0.105,0.106 v 1.324 c 0,0.062 -0.043,0.105 -0.105,0.105 h -2.356 c -0.043,0 -0.062,0.02 -0.062,0.063 v 1.144 c 0,0.043 0.019,0.063 0.062,0.063 h 2.871 c 0.063,0 0.102,0.043 0.102,0.105 v 1.36 c 0,0.062 -0.039,0.105 -0.102,0.105 h -4.679 c -0.063,0 -0.106,-0.043 -0.106,-0.105 v -6.942"
                 style="fill:#211a52;fill-opacity:1;fill-rule:nonzero;stroke:none"
                 id="path178"
                 inkscape:connector-curvature="0" /><path
                 d="m 109.441,65.914 c 0,-0.465 -0.316,-0.762 -0.843,-0.762 h -0.985 c -0.043,0 -0.066,0.024 -0.066,0.067 v 1.386 c 0,0.043 0.023,0.063 0.066,0.063 h 0.985 c 0.527,0 0.843,-0.293 0.843,-0.758 z m 0.094,4.824 c -0.094,0 -0.125,-0.031 -0.156,-0.105 l -1.082,-2.438 h -0.684 c -0.043,0 -0.066,0.02 -0.066,0.063 v 2.379 c 0,0.062 -0.039,0.105 -0.106,0.105 h -1.64 c -0.063,0 -0.106,-0.043 -0.106,-0.105 v -6.942 c 0,-0.062 0.043,-0.105 0.106,-0.105 h 2.914 c 1.64,0 2.574,0.957 2.574,2.305 0,0.89 -0.418,1.617 -1.176,1.996 l 1.313,2.722 c 0.031,0.063 0,0.129 -0.071,0.129 h -1.82"
                 style="fill:#211a52;fill-opacity:1;fill-rule:nonzero;stroke:none"
                 id="path180"
                 inkscape:connector-curvature="0" /><path
                 d="m 114.109,69.844 c -0.05,-0.043 -0.062,-0.114 -0.011,-0.168 l 0.949,-1.114 c 0.039,-0.054 0.105,-0.054 0.144,-0.011 0.434,0.379 1.106,0.715 1.821,0.715 0.664,0 1.011,-0.274 1.011,-0.672 0,-0.305 -0.203,-0.508 -0.906,-0.602 l -0.379,-0.051 c -1.547,-0.222 -2.386,-0.914 -2.386,-2.25 0,-1.336 1.043,-2.23 2.66,-2.23 0.988,0 1.914,0.305 2.554,0.789 0.051,0.043 0.063,0.094 0.024,0.156 l -0.789,1.149 c -0.043,0.05 -0.098,0.062 -0.149,0.031 -0.504,-0.336 -1.043,-0.539 -1.609,-0.539 -0.523,0 -0.789,0.254 -0.789,0.601 0,0.313 0.234,0.512 0.914,0.598 l 0.379,0.055 c 1.57,0.219 2.367,0.914 2.367,2.269 0,1.325 -1.008,2.293 -2.922,2.293 -1.168,0 -2.347,-0.492 -2.883,-1.019"
                 style="fill:#211a52;fill-opacity:1;fill-rule:nonzero;stroke:none"
                 id="path182"
                 inkscape:connector-curvature="0" /><path
                 d="m 122.879,63.695 c 0,-0.066 0.043,-0.105 0.105,-0.105 h 1.641 c 0.063,0 0.105,0.043 0.105,0.105 v 6.938 c 0,0.062 -0.042,0.105 -0.105,0.105 h -1.641 c -0.062,0 -0.105,-0.043 -0.105,-0.105 v -6.938"
                 style="fill:#211a52;fill-opacity:1;fill-rule:nonzero;stroke:none"
                 id="path184"
                 inkscape:connector-curvature="0" /><path
                 d="m 129.57,70.738 h -0.031 c -0.023,0 -0.035,-0.008 -0.055,-0.031 -0.011,-0.012 -0.019,-0.019 -0.019,-0.043 v -5.371 c 0,-0.031 -0.024,-0.055 -0.055,-0.063 h -1.797 c -0.023,0 -0.031,-0.011 -0.043,-0.023 l -0.008,-0.008 c 0,0 0,-0.011 -0.011,-0.011 -0.012,-0.02 -0.012,-0.043 -0.012,-0.063 v -1.43 c 0,-0.05 0.031,-0.093 0.074,-0.105 h 5.52 c 0.031,0 0.055,0.012 0.074,0.031 0,0 0.012,0.012 0.012,0.024 0.008,0.007 0.019,0.027 0.019,0.05 v 1.43 c 0,0.031 -0.011,0.063 -0.031,0.082 -0.012,0.012 -0.031,0.023 -0.055,0.023 h -1.773 c -0.024,0 -0.035,0 -0.043,0.012 -0.012,0 -0.012,0.008 -0.024,0.02 v 5.402 c -0.007,0.031 -0.019,0.043 -0.05,0.066 -0.012,0.012 -0.032,0.012 -0.055,0.012 h -1.637"
                 style="fill:#211a52;fill-opacity:1;fill-rule:nonzero;stroke:none"
                 id="path186"
                 inkscape:connector-curvature="0" /><path
                 d="m 137.812,70.738 c -0.062,0 -0.105,-0.043 -0.105,-0.105 v -2.66 l -2.164,-4.266 c -0.023,-0.062 0.008,-0.117 0.082,-0.117 h 1.652 c 0.075,0 0.125,0.031 0.168,0.105 l 1.2,2.438 h 0.031 l 1.176,-2.438 c 0.031,-0.074 0.093,-0.105 0.168,-0.105 h 1.621 c 0.086,0 0.105,0.055 0.086,0.117 l -2.168,4.266 v 2.66 c 0,0.062 -0.043,0.105 -0.106,0.105 h -1.641"
                 style="fill:#211a52;fill-opacity:1;fill-rule:nonzero;stroke:none"
                 id="path188"
                 inkscape:connector-curvature="0" /><path
                 d="M 91.492,40.02 C 90.164,39.426 88.785,38.93 86.531,37.559 80.203,33.699 78.277,27.957 81.836,17.938 83.895,12.137 84.883,7.246 84.375,1.969 84.305,1.922 84.23,1.879 84.16,1.832 c -0.332,6.625 -2.777,10.746 -7.152,17.723 -9.274,14.777 0.14,25.605 4.613,28.976 3.945,-1.988 7.332,-4.926 9.871,-8.511"
                 style="fill:#211a52;fill-opacity:1;fill-rule:nonzero;stroke:none"
                 id="path190"
                 inkscape:connector-curvature="0" /><path
                 d="M 72.711,19.016 C 79.859,10.598 82.184,6.719 82.668,0.926 82.594,0.887 82.516,0.836 82.441,0.793 80.785,7.723 76.629,11.395 65.68,18.688 53.887,26.539 54.418,40.039 57.422,48.441 c 3.656,1.879 7.797,2.946 12.187,2.946 0.938,0 1.86,-0.051 2.774,-0.145 C 63.867,38.324 64.457,28.73 72.711,19.016"
                 style="fill:#211a52;fill-opacity:1;fill-rule:nonzero;stroke:none"
                 id="path192"
                 inkscape:connector-curvature="0" /><path
                 d="M 68.34,12.805 C 76.238,9.375 79.984,4.172 81.066,0.098 80.996,0.062 80.926,0.031 80.855,0 77.418,7.191 70.555,8.391 58.82,9.965 c -6.957,0.93 -12.367,4.918 -15.632,9.851 -0.262,1.508 -0.407,3.055 -0.407,4.637 0,6.41 2.239,12.297 5.961,16.922 C 48.41,21.234 58.871,16.91 68.34,12.805"
                 style="fill:#211a52;fill-opacity:1;fill-rule:nonzero;stroke:none"
                 id="path194"
                 inkscape:connector-curvature="0" /></g></g></g></g></g></g></g></g></g></g></svg>